<?xml version="1.0" encoding="iso-8859-1"?>
<!-- Generator: Adobe Illustrator 19.0.0, SVG Export Plug-In . SVG Version: 6.00 Build 0)  -->
<svg version="1.1" id="Capa_1" xmlns="http://www.w3.org/2000/svg" xmlns:xlink="http://www.w3.org/1999/xlink" x="0px" y="0px"
	 viewBox="0 0 512 512" style="enable-background:new 0 0 512 512;" xml:space="preserve">
<path style="fill:#5C5E70;" d="M512,256c0,19.655-2.215,38.797-6.416,57.187c-20.261,88.827-86.727,160.057-172.763,187.089
	C308.569,507.894,282.77,512,256,512c-42.59,0-82.745-10.397-118.073-28.797c-6.729-3.5-13.281-7.293-19.644-11.368
	C107.53,464.959,97.322,457.3,87.74,448.94c-4.901-4.274-9.634-8.735-14.179-13.364c-1.045-1.055-2.079-2.121-3.103-3.197
	C26.791,386.476,0,324.357,0,256c0-70.363,28.379-134.102,74.344-180.37c0-0.01,0-0.021,0.021-0.021
	c42.35-42.653,99.6-70.447,163.297-74.961h0.031C243.743,0.219,249.846,0,256,0C397.385,0,512,114.615,512,256z"/>
<path style="fill:#797B89;" d="M505.584,313.187c-20.261,88.827-86.727,160.057-172.763,187.089h-99.662
	c-5.193,0-9.895-2.1-13.302-5.507c-3.396-3.406-5.507-8.108-5.507-13.302c0-10.386,8.422-18.808,18.808-18.808h57.166
	c5.193,0,9.895-2.1,13.302-5.507c3.406-3.406,5.507-8.108,5.507-13.302c0-10.386-8.422-18.808-18.808-18.808h-15.956
	c-5.193,0-9.895-2.1-13.302-5.507c-3.396-3.406-5.507-8.108-5.507-13.302c0-10.386,8.422-18.808,18.808-18.808h52.82
	c5.193,0,9.895-2.1,13.302-5.507c3.406-3.406,5.507-8.108,5.507-13.302c0-10.386-8.422-18.808-18.808-18.808H211.216
	c-5.193,0-9.895-2.1-13.302-5.507c-3.396-3.406-5.507-8.108-5.507-13.302c0-10.386,8.422-18.798,18.808-18.798h288.371
	C501.687,312.205,503.703,312.55,505.584,313.187z"/>
<path style="fill:#34ABE0;" d="M438.011,392.62c-28.484,28.484-62.6,47.407-97.813,56.477
	c-39.612,10.209-80.603,7.983-116.527-7.053c-19.08-7.983-41.096-3.49-55.704,11.118l-30.041,30.041
	c-6.729-3.5-13.281-7.293-19.644-11.368C107.53,464.959,97.322,457.3,87.74,448.94l17.053-17.063l20.94-20.94
	c14.618-14.608,19.111-36.624,11.139-55.693c-15.047-35.934-17.272-76.925-7.053-116.527c9.07-35.213,27.993-69.329,56.477-97.813
	c49.925-49.925,117.091-70.437,177.152-60.186c1.933,0.334,3.866,0.69,5.778,1.087c31.096,6.374,60.04,21.138,83.393,44.481
	C522.125,195.803,515.594,315.037,438.011,392.62z"/>
<path style="fill:#EDBB4C;" d="M340.198,449.097c-39.612,10.209-80.603,7.983-116.527-7.053c-19.08-7.983-41.096-3.49-55.703,11.118
	l-30.041,30.041c-6.729-3.5-13.281-7.293-19.644-11.368C107.53,464.959,97.322,457.3,87.74,448.94l17.053-17.063l20.94-20.94
	c14.618-14.608,19.111-36.624,11.139-55.693c-10.188-24.315-14.493-50.949-13.04-77.908c0.679-12.873,2.685-25.819,5.987-38.619
	l74.23,74.23l62.046,62.046l24.419,24.419L340.198,449.097z"/>
<path style="fill:#279FC9;" d="M393.947,292.739c-16.332,36.822-41.367,66.738-70.969,87.865
	c-10.324,7.367-21.201,13.667-32.465,18.808L129.818,238.717c9.07-35.213,27.993-69.329,56.477-97.813
	c51.534-51.534,121.428-71.722,182.93-59.099C415.065,135.293,427.238,217.736,393.947,292.739z"/>
<path style="fill:#FF525D;" d="M370.96,267.661c-16.332,36.822-41.368,66.738-70.969,87.865
	c-33.29,23.761-72.349,36.415-111.271,35.307c-20.679-0.596-39.602,11.504-47.982,30.407l-22.455,50.594
	C107.53,464.959,97.322,457.3,87.74,448.94c-6.019-5.245-11.776-10.773-17.283-16.562l15.694-35.37
	c8.391-18.892,4.671-41.044-9.634-55.965C49.57,312.916,32.747,275.466,28.045,234.83c-4.19-36.112,1.202-74.752,17.544-111.574
	c7.774-17.512,17.512-33.468,28.776-47.647C115.66,23.562,177.413-4.712,237.683,0.648c0,0,0,0,0.01,0
	c17.345,1.546,34.586,5.872,51.158,13.239c32.037,14.221,57.334,37.804,74.595,66.832C394.585,133.089,399.6,203.128,370.96,267.661
	z"/>
<path style="fill:#EF4152;" d="M286.741,12.967c-77.072-32.455-174.488,20.919-218.593,120.31
	C51.806,170.099,45.046,208.123,46.905,243.2c2.069,39.466,15.005,75.191,37.397,101.292c11.86,13.845,14.012,35.307,5.632,54.199
	l-16.374,36.885c-1.045-1.055-2.079-2.121-3.103-3.197l15.694-35.37c8.391-18.892,4.671-41.044-9.634-55.965
	C49.57,312.916,32.747,275.466,28.045,234.83c-4.19-36.112,1.202-74.752,17.544-111.574c7.764-17.512,17.502-33.447,28.756-47.626
	c0-0.01,0-0.021,0.021-0.021C115.649,23.573,177.403-4.702,237.662,0.648h0.031C254.307,2.132,270.806,6.165,286.741,12.967z"/>
<path style="fill:#FFD15C;" d="M299.99,355.527c-10.762,7.68-22.131,14.2-33.896,19.466c-24.639,11.034-51.033,16.593-77.375,15.841
	c-20.679-0.596-39.602,11.504-47.982,30.407l-22.455,50.594C107.53,464.959,97.322,457.3,87.74,448.94
	c-6.019-5.245-11.776-10.773-17.283-16.562l15.694-35.37c8.391-18.892,4.671-41.044-9.634-55.965
	C49.57,312.916,32.747,275.466,28.045,234.83l95.786,42.506l80.217,35.61L299.99,355.527z"/>
<path style="fill:#EF4152;" d="M223.33,146.282c-1.077-0.069-2.168-0.111-3.274-0.111c-25.744,0-46.613,20.869-46.613,46.613
	s20.869,46.613,46.613,46.613s46.613-20.869,46.613-46.613v-0.18C266.573,168.034,247.486,147.952,223.33,146.282z"/>
<path style="fill:#E8DBC4;" d="M293.71,171.058v0.18c0,25.744-20.869,46.613-46.613,46.613s-46.613-20.869-46.613-46.613
	s20.869-46.613,46.613-46.613c1.104,0,2.196,0.042,3.274,0.111C274.526,126.407,293.613,146.488,293.71,171.058z"/>
<path style="fill:#F9EED7;" d="M293.71,171.058c-3.936,16.877-19.06,29.445-37.124,29.445c-21.062,0-38.146-17.084-38.146-38.146
	c0-18.949,13.825-34.667,31.931-37.622C274.526,126.407,293.613,146.488,293.71,171.058z"/>
<circle style="fill:#FCF8F2;" cx="260.054" cy="150.904" r="12.775"/>
<g>
</g>
<g>
</g>
<g>
</g>
<g>
</g>
<g>
</g>
<g>
</g>
<g>
</g>
<g>
</g>
<g>
</g>
<g>
</g>
<g>
</g>
<g>
</g>
<g>
</g>
<g>
</g>
<g>
</g>
</svg>
